<svg width="24" height="22" viewBox="0 0 24 22" fill="none" xmlns="http://www.w3.org/2000/svg">
<path d="M19.3399 13.2824L18.3399 11.7608C18.1299 11.4216 17.9399 10.7799 17.9399 10.4041V8.08492C17.9399 5.93075 16.5599 4.06992 14.5699 3.19909C14.0499 2.35575 13.0899 1.83325 11.9899 1.83325C10.8999 1.83325 9.91994 2.37409 9.39994 3.22659C7.44994 4.11575 6.09994 5.95825 6.09994 8.08492V10.4041C6.09994 10.7799 5.90994 11.4216 5.69994 11.7516L4.68994 13.2824C4.28994 13.8966 4.19994 14.5749 4.44994 15.1983C4.68994 15.8124 5.25994 16.2891 5.99994 16.5183C7.93994 17.1233 9.97994 17.4166 12.0199 17.4166C14.0599 17.4166 16.0999 17.1233 18.0399 16.5274C18.7399 16.3166 19.2799 15.8308 19.5399 15.1983C19.7999 14.5658 19.7299 13.8691 19.3399 13.2824Z" fill="white"/>
<path d="M14.8297 18.3424C14.4097 19.4058 13.2997 20.1666 11.9997 20.1666C11.2097 20.1666 10.4297 19.8733 9.87969 19.3508C9.55969 19.0758 9.31969 18.7091 9.17969 18.3333C9.30969 18.3516 9.43969 18.3608 9.57969 18.3791C9.80969 18.4066 10.0497 18.4341 10.2897 18.4524C10.8597 18.4983 11.4397 18.5258 12.0197 18.5258C12.5897 18.5258 13.1597 18.4983 13.7197 18.4524C13.9297 18.4341 14.1397 18.4249 14.3397 18.3974C14.4997 18.3791 14.6597 18.3608 14.8297 18.3424Z" fill="white"/>
</svg>
